<?xml version="1.0" standalone="no"?>
<!DOCTYPE svg PUBLIC "-//W3C//DTD SVG 20010904//EN"
 "http://www.w3.org/TR/2001/REC-SVG-20010904/DTD/svg10.dtd">
<svg version="1.0" xmlns="http://www.w3.org/2000/svg"
 width="302.000000pt" height="302.000000pt" viewBox="0 0 302.000000 302.000000"
 preserveAspectRatio="xMidYMid meet">
<metadata>
Created by potrace 1.14, written by Peter Selinger 2001-2017
</metadata>
<g transform="translate(0.000000,302.000000) scale(0.100000,-0.100000)"
fill="#000000" stroke="none">
<path d="M1070 2754 c0 -4 21 -32 46 -63 89 -108 120 -198 118 -346 -1 -100
-25 -203 -69 -309 l-16 -38 -22 19 c-52 46 -279 173 -309 173 -15 0 -41 -50
-55 -107 l-8 -31 -58 44 c-125 94 -250 149 -410 179 -127 24 -267 21 -267 -5
0 -5 16 -18 35 -30 85 -52 176 -226 202 -385 9 -58 10 -178 1 -250 -4 -27 -7
-54 -7 -59 -1 -13 -39 23 -60 58 -11 17 -22 48 -26 69 l-7 38 -23 -21 c-34
-32 -84 -137 -99 -210 -21 -98 -12 -182 27 -265 40 -83 106 -153 260 -274 89
-71 122 -90 199 -118 51 -19 124 -45 161 -59 67 -26 68 -27 49 -45 -38 -35
-128 -87 -171 -99 -90 -24 -217 -8 -312 40 -20 11 -39 17 -42 13 -4 -3 8 -31
25 -62 88 -159 196 -268 312 -314 77 -31 208 -28 301 6 39 14 102 38 140 52
39 14 84 32 100 40 17 7 89 38 160 68 l130 55 130 -2 130 -1 100 -56 c192
-109 352 -186 413 -199 134 -28 266 15 390 126 62 56 152 164 152 182 0 6 6
12 13 15 6 2 9 8 5 12 -5 5 -36 0 -70 -11 -42 -13 -93 -19 -153 -19 -76 0 -99
4 -145 26 -30 14 -75 44 -99 65 l-43 40 39 26 c21 14 70 37 108 51 152 55 212
83 260 122 28 22 68 54 90 70 22 17 73 64 115 105 139 139 173 268 120 450
-19 62 -83 180 -99 180 -4 0 -13 -19 -20 -42 -13 -44 -39 -88 -50 -88 -4 0 -7
10 -7 23 -1 12 -4 47 -8 77 -23 195 -17 259 33 366 36 78 87 134 163 181 32
20 55 40 51 44 -28 25 -250 31 -348 9 -101 -23 -252 -95 -323 -155 -29 -25
-30 -25 -43 -5 -14 20 -16 20 -69 4 -141 -42 -374 -179 -439 -257 -20 -25 -28
-14 -24 35 17 270 8 382 -40 480 -65 132 -280 277 -531 357 -105 34 -106 34
-106 25z"/>
</g>
</svg>
